<svg width="22" height="18" viewBox="0 0 22 18" fill="none" xmlns="http://www.w3.org/2000/svg">
<path d="M21.6526 8.90208C21.5428 5.65633 19.6959 2.84416 17.0526 1.42188C17.7846 2.20334 18.9313 3.78848 19.1462 6.21359C19.2935 7.87492 18.6011 9.02671 17.5924 9.70195C14.8658 11.5272 6.96431 7.14342 6.02637 14.0247C6.02671 14.0252 6.02706 14.0257 6.02729 14.0261C6.2434 13.9084 6.49505 13.7997 6.77729 13.714C7.15707 13.5955 7.58987 13.5146 8.0574 13.4799C8.99361 13.4061 10.0638 13.5086 11.1713 13.7374C11.3093 13.7675 11.4485 13.798 11.5888 13.8286C11.7278 13.863 11.8679 13.8976 12.0088 13.9324C12.1502 13.9656 12.2897 14.0077 12.431 14.046C12.5686 14.0837 12.707 14.1216 12.8458 14.1595C12.9897 14.2013 13.122 14.2284 13.2549 14.2558C13.3867 14.2874 13.5299 14.3014 13.6678 14.3255C13.9471 14.358 14.23 14.3817 14.5136 14.3772C15.0806 14.3762 15.6496 14.2975 16.1903 14.1404C16.7323 13.9882 17.246 13.7592 17.7044 13.4692C18.1637 13.1812 18.5725 12.8384 18.9062 12.4596C19.242 12.0828 19.5088 11.6777 19.711 11.2794C19.9142 10.8812 20.0547 10.4901 20.1455 10.1343C20.1988 9.95832 20.224 9.78729 20.2591 9.63168C20.2851 9.47429 20.3042 9.32866 20.3229 9.19727C20.3465 8.93282 20.3629 8.72416 20.3618 8.58138C20.3653 8.43859 20.3671 8.36251 20.3671 8.36251C20.3671 8.36251 20.3694 8.43859 20.3738 8.58138C20.3826 8.7244 20.3778 8.93377 20.3687 9.20142C20.3571 9.33448 20.3459 9.48237 20.3285 9.64296C20.3018 9.80188 20.2856 9.97696 20.2414 10.1587C20.1689 10.5254 20.0478 10.933 19.8613 11.3552C19.6758 11.7774 19.4227 12.2138 19.0936 12.6281C18.7666 13.0441 18.3574 13.4299 17.8886 13.7629C17.4206 14.0978 16.8885 14.3734 16.3187 14.5701C15.7503 14.7716 15.1443 14.8925 14.5316 14.9296C14.2253 14.9522 13.9175 14.9449 13.6113 14.9271C13.458 14.9099 13.3076 14.9039 13.1523 14.8769C12.9967 14.8541 12.8416 14.8302 12.7036 14.7986L12.4826 14.7518L12.2743 14.7043C12.1357 14.6736 11.9984 14.6389 11.8607 14.6133C11.7232 14.586 11.5867 14.5588 11.4511 14.5319C11.3152 14.5087 11.1804 14.4856 11.0465 14.4628C9.97629 14.2922 8.96796 14.2475 8.13998 14.3523C7.72593 14.4021 7.35915 14.4903 7.05471 14.6013C6.87712 14.6642 6.72427 14.7357 6.59051 14.8089C8.07373 16.6541 10.2685 17.8639 12.7103 17.9896C17.7116 18.2467 21.8266 14.047 21.6526 8.90208Z" fill="#009961"/>
<path d="M17.2119 1.47198C16.1093 0.87251 14.8687 0.516295 13.5563 0.478125C13.272 0.469869 12.9907 0.476211 12.7131 0.496552C12.6577 0.50062 12.6036 0.50768 12.5501 0.515817C12.5183 0.520484 12.4869 0.525867 12.4557 0.531731C12.4524 0.532329 12.4489 0.532808 12.4456 0.533406C12.4459 0.533525 12.4462 0.533526 12.4465 0.533646C12.0003 0.619917 11.6191 0.832784 11.322 1.12654C11.4084 1.16172 11.4962 1.19833 11.5868 1.23866C12.1305 1.48156 12.7531 1.81922 13.3289 2.32309C13.6154 2.57485 13.8877 2.86956 14.1152 3.20854C14.3431 3.54657 14.5237 3.92947 14.6336 4.33235C14.6654 4.43178 14.6842 4.53469 14.7038 4.63687C14.727 4.73846 14.7387 4.84172 14.749 4.94487L14.7664 5.10891L14.7672 5.25753C14.7677 5.35648 14.7682 5.45508 14.7687 5.55343C14.7752 5.64928 14.752 5.75661 14.7425 5.85736C14.7294 5.95919 14.7182 6.06089 14.7031 6.16033C14.6778 6.25653 14.6526 6.35213 14.6276 6.44702C14.6035 6.54203 14.5795 6.63608 14.5387 6.72355C14.5024 6.81221 14.4665 6.90028 14.4309 6.98738C14.3959 7.07461 14.3433 7.15167 14.301 7.2328C14.2185 7.39709 14.1106 7.53852 14.0101 7.67876C13.9098 7.81899 13.7911 7.93697 13.6867 8.0589C13.569 8.16731 13.4633 8.28122 13.3477 8.373C13.2331 8.46585 13.1261 8.55822 13.0148 8.63241C12.9069 8.71162 12.8021 8.78234 12.7004 8.84336C12.5002 8.97079 12.3173 9.06616 12.1663 9.14238C12.0149 9.21824 11.8937 9.27209 11.8111 9.3087C11.7287 9.3458 11.6847 9.36554 11.6847 9.36554C11.6847 9.36554 11.7277 9.3434 11.8081 9.30176C11.8887 9.2606 12.0069 9.20018 12.1535 9.1163C12.2998 9.03206 12.4766 8.92736 12.668 8.79023C12.7655 8.72442 12.8654 8.6488 12.9675 8.56492C13.0732 8.48595 13.1737 8.38915 13.2812 8.29223C13.3896 8.19639 13.4868 8.07924 13.5957 7.96808C13.6908 7.84388 13.7998 7.72398 13.8889 7.58387C13.9783 7.44387 14.0746 7.30352 14.1446 7.14306C14.1835 7.0575 14.2346 6.97686 14.2621 6.88412C14.2882 6.80946 14.3139 6.73551 14.3399 6.66096C14.3771 6.57457 14.3955 6.48124 14.4139 6.38743C14.4301 6.31073 14.4464 6.23356 14.4627 6.1559C14.4708 6.07262 14.4837 5.93741 14.4918 5.85413C14.4944 5.75661 14.5152 5.66711 14.503 5.56205C14.4975 5.46393 14.492 5.36545 14.4864 5.26662L14.478 5.11825C14.4719 5.09132 14.4629 5.02982 14.4557 4.98734C14.4414 4.89317 14.4261 4.79925 14.3999 4.70771C14.3772 4.61545 14.3558 4.52296 14.3219 4.43454C14.2036 4.07521 14.0241 3.74149 13.8034 3.44857C13.583 3.15518 13.3233 2.90187 13.0497 2.68637C12.5004 2.25513 11.9047 1.97155 11.3839 1.77268C11.3825 1.77208 11.3809 1.77148 11.3794 1.77088C11.11 1.6687 10.8157 1.82605 10.7265 2.11011C10.4892 2.86561 10.6133 3.74496 11.2263 4.42161L11.9876 5.26207C12.037 5.31664 12.0796 5.37551 12.1157 5.43713C12.4705 5.78054 12.8961 6.42907 12.5957 7.42281C12.1757 8.81153 10.0661 9.54538 8.86865 10.422C9.39574 10.2377 9.97195 10.145 10.5725 10.1079C10.5748 10.1078 10.577 10.1075 10.5793 10.1074C10.6785 10.1013 10.7784 10.0968 10.8788 10.0935C10.8788 10.0935 10.879 10.0935 10.8792 10.0935C10.9469 10.0914 11.0152 10.0907 11.0835 10.0897C13.0002 10.071 14.6732 10.5742 16.4344 10.2598C16.8235 10.2098 17.1759 10.1188 17.4805 9.97112C17.5318 9.95161 17.583 9.93259 17.6346 9.91141C18.9101 9.38612 19.7422 7.70077 19.7629 6.01901C19.7904 3.81412 18.6956 2.48822 17.2119 1.47198Z" fill="#09331B"/>
<path d="M4.69244 4.3092C5.33608 5.25112 5.82295 6.01319 6.6688 6.13407C7.38698 6.23671 7.81337 5.98327 8.04017 5.76313C7.97968 5.68713 7.90075 5.59552 7.80645 5.49342C7.7408 5.4243 7.66934 5.34939 7.58887 5.27416C7.51114 5.1963 7.42222 5.12096 7.33253 5.04026C7.24054 4.96208 7.14382 4.8828 7.04403 4.80375C6.94139 4.7284 6.84072 4.64618 6.73302 4.57378C6.62544 4.50128 6.52104 4.42298 6.41126 4.3567C6.30214 4.28955 6.19752 4.21781 6.09059 4.15819C5.98433 4.09704 5.88146 4.03796 5.78409 3.98195C5.6843 3.92986 5.58989 3.88072 5.50272 3.8353C5.3296 3.74128 5.17799 3.67816 5.0748 3.62717C4.97062 3.57814 4.91112 3.55019 4.91112 3.55019C4.91112 3.55019 4.97314 3.57214 5.08161 3.61068C5.1893 3.65119 5.34749 3.69946 5.52973 3.77633C5.62161 3.81324 5.72118 3.85331 5.82657 3.89557C5.9302 3.9422 6.03944 3.99144 6.15251 4.04233C6.26646 4.0919 6.37898 4.15371 6.49645 4.21093C6.61457 4.26716 6.72819 4.33595 6.84533 4.39918C6.96257 4.46229 7.07367 4.53589 7.18674 4.60294C7.29729 4.67391 7.4051 4.74576 7.5084 4.81728C7.60972 4.89165 7.70984 4.96088 7.79953 5.03436C7.89142 5.1048 7.97485 5.17632 8.05181 5.24282C8.13612 5.31762 8.21 5.38695 8.27411 5.45007C8.59906 4.88084 8.30353 3.67664 6.96652 3.07355C5.60361 2.45879 3.6582 3.26159 3.6582 3.26159C3.6582 3.26159 4.0488 3.36729 4.69244 4.3092Z" fill="#009961"/>
<path d="M7.83235 7.69285C8.4858 7.5841 9.00048 7.48448 9.4004 7.73352C9.73988 7.94503 9.81223 8.18082 9.81574 8.33625C9.75943 8.34207 9.68919 8.347 9.60812 8.3504C9.55256 8.35202 9.4922 8.35372 9.42792 8.35237C9.36375 8.35291 9.29596 8.3487 9.22562 8.3461C9.15549 8.3418 9.08282 8.33634 9.00897 8.32971C8.93556 8.32075 8.86012 8.31493 8.78574 8.30319C8.71137 8.29155 8.63603 8.28304 8.56336 8.26843C8.49058 8.25437 8.41779 8.24353 8.34905 8.22758C8.27988 8.21244 8.21305 8.19775 8.14972 8.18378C8.08704 8.16765 8.02775 8.15242 7.97303 8.13827C7.86274 8.11157 7.77402 8.08156 7.71038 8.06382C7.64716 8.0451 7.61093 8.03444 7.61093 8.03444C7.61093 8.03444 7.64567 8.04806 7.70634 8.07198C7.76754 8.09491 7.85286 8.13244 7.95996 8.16828C8.01319 8.187 8.07089 8.20725 8.13187 8.22875C8.19392 8.2481 8.25937 8.26843 8.32706 8.28958C8.39463 8.31143 8.46656 8.32854 8.53871 8.34897C8.61075 8.36993 8.68597 8.38498 8.76045 8.40317C8.83494 8.42144 8.91112 8.4339 8.98549 8.4493C9.0604 8.46247 9.13456 8.47448 9.20671 8.48496C9.27917 8.49374 9.34908 8.50395 9.41645 8.50915C9.48339 8.51613 9.54735 8.51972 9.60653 8.52294C9.67219 8.52572 9.73127 8.52689 9.78376 8.5268C9.68431 8.83855 9.0672 9.15926 8.26596 8.91013C7.44911 8.65616 6.97363 7.70405 6.97363 7.70405C6.97363 7.70405 7.1788 7.80152 7.83235 7.69285Z" fill="#009961"/>
<path d="M8.38857 0.767076C9.07547 1.21913 9.62881 1.5568 9.7707 2.24796C9.89125 2.83481 9.74875 3.21044 9.61488 3.41767C9.55888 3.37411 9.49088 3.31661 9.41475 3.24728C9.36311 3.19874 9.30701 3.14609 9.25009 3.08585C9.19154 3.0281 9.13401 2.96089 9.07272 2.89355C9.01306 2.8241 8.95217 2.75067 8.89129 2.67475C8.83274 2.59621 8.76962 2.51979 8.7127 2.43677C8.65568 2.35375 8.595 2.27397 8.54215 2.18871C8.48868 2.10395 8.43248 2.02355 8.3843 1.94003C8.3352 1.85714 8.28764 1.77711 8.24261 1.70106C8.20012 1.62277 8.15997 1.54871 8.12287 1.48038C8.04664 1.34496 7.99287 1.22473 7.951 1.14346C7.91024 1.06131 7.88706 1.01439 7.88706 1.01439C7.88706 1.01439 7.90637 1.06392 7.94022 1.15055C7.97539 1.23631 8.0194 1.36339 8.08466 1.50789C8.11627 1.58095 8.15052 1.65999 8.18681 1.74375C8.22594 1.82565 8.2671 1.91203 8.30979 2.00139C8.35157 2.09163 8.40158 2.1795 8.44884 2.27198C8.49549 2.36508 8.55038 2.45332 8.60161 2.54505C8.65284 2.63691 8.71077 2.72266 8.76444 2.81054C8.82055 2.89604 8.87716 2.97931 8.93317 3.05872C8.9909 3.13626 9.04518 3.2133 9.10149 3.28126C9.15597 3.35134 9.21055 3.41431 9.26127 3.47244C9.31809 3.53592 9.37054 3.59118 9.4181 3.63885C9.05331 3.95773 8.21242 3.81721 7.70746 2.7605C7.19264 1.68338 7.60216 0 7.60216 0C7.60216 0 7.70167 0.31502 8.38857 0.767076Z" fill="#009961"/>
<path d="M1.43275 3.67056C2.31363 3.78947 3.01458 3.86223 3.3924 4.40933C3.71309 4.87379 3.68413 5.25956 3.60905 5.49458C3.53502 5.47901 3.44361 5.45611 3.33968 5.42612C3.26866 5.4045 3.19161 5.38091 3.11109 5.35127C3.02976 5.3243 2.94634 5.28874 2.85886 5.25445C2.77243 5.21772 2.68345 5.17809 2.59366 5.13613C2.50549 5.09103 2.41315 5.04965 2.32521 4.9999C2.23728 4.95027 2.14633 4.90494 2.06198 4.85159C1.97729 4.79905 1.89086 4.75128 1.81219 4.69759C1.7326 4.64493 1.65578 4.59391 1.58279 4.54567C1.51177 4.4943 1.44469 4.44583 1.38282 4.40096C1.25711 4.31321 1.16048 4.22975 1.08911 4.17559C1.01879 4.12015 0.978585 4.08841 0.978585 4.08841C0.978585 4.08841 1.01543 4.12398 1.07996 4.18605C1.14554 4.24696 1.23417 4.34029 1.35107 4.44036C1.40877 4.49151 1.47122 4.54683 1.53726 4.60541C1.60573 4.66132 1.67803 4.72025 1.75275 4.78115C1.8269 4.84322 1.90905 4.89994 1.98969 4.96189C2.06998 5.02454 2.15734 5.07964 2.24214 5.13915C2.32684 5.19877 2.41674 5.2505 2.50283 5.30582C2.59065 5.35801 2.67824 5.40799 2.76409 5.45495C2.8511 5.49946 2.93429 5.54503 3.01655 5.58187C3.09765 5.62127 3.17643 5.65429 3.24954 5.68474C3.33099 5.71728 3.40502 5.7446 3.4713 5.76715C3.18651 6.19267 2.24319 6.40793 1.35837 5.6873C0.456407 4.95271 0.342285 3.31641 0.342285 3.31641C0.342285 3.31641 0.551875 3.55166 1.43275 3.67056Z" fill="#009961"/>
<path d="M3.32861 7.60021C4.59831 7.78033 5.60925 7.89488 6.13875 8.62278C6.58846 9.24089 6.53479 9.74597 6.41931 10.0522C6.31275 10.0298 6.18145 9.99723 6.03206 9.9551C5.93009 9.92481 5.81932 9.89185 5.70396 9.85065C5.5872 9.81317 5.46764 9.76419 5.34234 9.71672C5.21844 9.66624 5.0911 9.61169 4.96249 9.55425C4.83642 9.49262 4.70424 9.43587 4.57855 9.36821C4.45287 9.30066 4.32285 9.23881 4.20265 9.1665C4.08168 9.09525 3.95842 9.03025 3.84625 8.95772C3.73281 8.88646 3.62319 8.81752 3.5193 8.75218C3.41822 8.6829 3.32275 8.61733 3.23454 8.55686C3.05545 8.43837 2.91829 8.32614 2.8167 8.25314C2.71664 8.17852 2.65953 8.13581 2.65953 8.13581C2.65953 8.13581 2.71179 8.18339 2.80306 8.26661C2.89611 8.34819 3.02129 8.47307 3.18725 8.60758C3.26908 8.67628 3.35767 8.75056 3.45149 8.82925C3.54887 8.90445 3.65148 8.98372 3.75766 9.06565C3.86295 9.1491 3.97997 9.22581 4.09481 9.30914C4.2089 9.39351 4.33356 9.46813 4.4544 9.54856C4.57511 9.6291 4.70347 9.69932 4.82622 9.77429C4.95165 9.8452 5.07682 9.91321 5.19932 9.97704C5.32373 10.0379 5.44253 10.0999 5.56043 10.1504C5.67643 10.2043 5.78936 10.2498 5.89414 10.2917C6.0109 10.3366 6.11708 10.3744 6.21217 10.4057C5.78784 10.9561 4.41794 11.2127 3.16073 10.2432C1.87918 9.25494 1.76318 7.10547 1.76318 7.10547C1.76318 7.10547 2.05903 7.4201 3.32861 7.60021Z" fill="#009961"/>
</svg>
